# xmcd
#
# Track frame offsets:
#        150
#        27016
#        43573
#
# Disc length: 915 seconds
#
# Revision: 2
# Processed by: cddbd v1.5.2PL0 Copyright (c) Steve Scherf et al.
# Submitted via: ExactAudioCopy v1.0b1
#
DISCID=18039103
DTITLE=BLACK SABBATH / 13 Bonus Disc
DYEAR=2013
DGENRE=Heavy Metal
TTITLE0=METHADEMIC
TTITLE1=PEACE OF MIND
TTITLE2=PARIAH
EXTD=
EXTT0=
EXTT1=
EXTT2=
PLAYORDER=
.
